<mxfile host="app.diagrams.net" modified="2024-03-04T11:03:28.926Z" agent="Mozilla/5.0 (Windows NT 10.0; Win64; x64) AppleWebKit/537.36 (KHTML, like Gecko) Chrome/122.0.0.0 Safari/537.36" etag="QKBzTsnnP8lOa8dXui5s" version="23.1.7" type="github">
  <diagram name="Page-1" id="I-F9iZ00WgiVhU9zLK6w">
    <mxGraphModel dx="1434" dy="780" grid="1" gridSize="10" guides="1" tooltips="1" connect="1" arrows="1" fold="1" page="1" pageScale="1" pageWidth="827" pageHeight="1169" math="0" shadow="0">
      <root>
        <mxCell id="0" />
        <mxCell id="1" parent="0" />
        <mxCell id="JPL0NBKV3lcDAwRk9F9k-4" value="" style="edgeStyle=orthogonalEdgeStyle;rounded=0;orthogonalLoop=1;jettySize=auto;html=1;" edge="1" parent="1" source="JPL0NBKV3lcDAwRk9F9k-2" target="JPL0NBKV3lcDAwRk9F9k-3">
          <mxGeometry relative="1" as="geometry" />
        </mxCell>
        <mxCell id="JPL0NBKV3lcDAwRk9F9k-2" value="Master" style="ellipse;whiteSpace=wrap;html=1;" vertex="1" parent="1">
          <mxGeometry x="230" y="200" width="120" height="80" as="geometry" />
        </mxCell>
        <mxCell id="JPL0NBKV3lcDAwRk9F9k-6" value="" style="edgeStyle=orthogonalEdgeStyle;rounded=0;orthogonalLoop=1;jettySize=auto;html=1;" edge="1" parent="1" source="JPL0NBKV3lcDAwRk9F9k-3" target="JPL0NBKV3lcDAwRk9F9k-5">
          <mxGeometry relative="1" as="geometry" />
        </mxCell>
        <mxCell id="JPL0NBKV3lcDAwRk9F9k-10" value="" style="edgeStyle=orthogonalEdgeStyle;rounded=0;orthogonalLoop=1;jettySize=auto;html=1;" edge="1" parent="1" source="JPL0NBKV3lcDAwRk9F9k-3" target="JPL0NBKV3lcDAwRk9F9k-9">
          <mxGeometry relative="1" as="geometry" />
        </mxCell>
        <mxCell id="JPL0NBKV3lcDAwRk9F9k-3" value="feature/ourrealeseinonemonth" style="ellipse;whiteSpace=wrap;html=1;" vertex="1" parent="1">
          <mxGeometry x="430" y="200" width="220" height="80" as="geometry" />
        </mxCell>
        <mxCell id="JPL0NBKV3lcDAwRk9F9k-5" value="feature/NIM-01-scetch-my-card-abc" style="ellipse;whiteSpace=wrap;html=1;" vertex="1" parent="1">
          <mxGeometry x="304" y="390" width="220" height="80" as="geometry" />
        </mxCell>
        <mxCell id="JPL0NBKV3lcDAwRk9F9k-7" value="Phil" style="shape=umlActor;verticalLabelPosition=bottom;verticalAlign=top;html=1;outlineConnect=0;" vertex="1" parent="1">
          <mxGeometry x="210" y="430" width="30" height="60" as="geometry" />
        </mxCell>
        <mxCell id="JPL0NBKV3lcDAwRk9F9k-8" value="" style="endArrow=classic;html=1;rounded=0;entryX=0;entryY=0.5;entryDx=0;entryDy=0;" edge="1" parent="1" target="JPL0NBKV3lcDAwRk9F9k-5">
          <mxGeometry width="50" height="50" relative="1" as="geometry">
            <mxPoint x="240" y="450" as="sourcePoint" />
            <mxPoint x="290" y="400" as="targetPoint" />
          </mxGeometry>
        </mxCell>
        <mxCell id="JPL0NBKV3lcDAwRk9F9k-9" value="feature/NIM-403-notificationapis" style="ellipse;whiteSpace=wrap;html=1;" vertex="1" parent="1">
          <mxGeometry x="730" y="220" width="220" height="80" as="geometry" />
        </mxCell>
        <mxCell id="JPL0NBKV3lcDAwRk9F9k-43" value="" style="edgeStyle=orthogonalEdgeStyle;rounded=0;orthogonalLoop=1;jettySize=auto;html=1;" edge="1" parent="1" source="JPL0NBKV3lcDAwRk9F9k-13" target="JPL0NBKV3lcDAwRk9F9k-9">
          <mxGeometry relative="1" as="geometry" />
        </mxCell>
        <mxCell id="JPL0NBKV3lcDAwRk9F9k-44" value="" style="edgeStyle=orthogonalEdgeStyle;rounded=0;orthogonalLoop=1;jettySize=auto;html=1;" edge="1" parent="1" source="JPL0NBKV3lcDAwRk9F9k-13" target="JPL0NBKV3lcDAwRk9F9k-24">
          <mxGeometry relative="1" as="geometry" />
        </mxCell>
        <mxCell id="JPL0NBKV3lcDAwRk9F9k-13" value="Matt" style="shape=umlActor;verticalLabelPosition=bottom;verticalAlign=top;html=1;outlineConnect=0;" vertex="1" parent="1">
          <mxGeometry x="777.5" y="350" width="30" height="60" as="geometry" />
        </mxCell>
        <mxCell id="JPL0NBKV3lcDAwRk9F9k-36" value="" style="edgeStyle=orthogonalEdgeStyle;rounded=0;orthogonalLoop=1;jettySize=auto;html=1;" edge="1" parent="1" source="JPL0NBKV3lcDAwRk9F9k-24" target="JPL0NBKV3lcDAwRk9F9k-27">
          <mxGeometry relative="1" as="geometry" />
        </mxCell>
        <mxCell id="JPL0NBKV3lcDAwRk9F9k-24" value="Pull request&amp;nbsp; feature/NIM-403-notificationapis" style="shape=process;whiteSpace=wrap;html=1;backgroundOutline=1;" vertex="1" parent="1">
          <mxGeometry x="670" y="450" width="175" height="60" as="geometry" />
        </mxCell>
        <mxCell id="JPL0NBKV3lcDAwRk9F9k-31" value="" style="edgeStyle=orthogonalEdgeStyle;rounded=0;orthogonalLoop=1;jettySize=auto;html=1;" edge="1" parent="1" source="JPL0NBKV3lcDAwRk9F9k-27" target="JPL0NBKV3lcDAwRk9F9k-30">
          <mxGeometry relative="1" as="geometry" />
        </mxCell>
        <mxCell id="JPL0NBKV3lcDAwRk9F9k-27" value="feature/NIM-403-notificationapis" style="ellipse;whiteSpace=wrap;html=1;" vertex="1" parent="1">
          <mxGeometry x="647.5" y="570" width="220" height="80" as="geometry" />
        </mxCell>
        <mxCell id="JPL0NBKV3lcDAwRk9F9k-34" value="" style="edgeStyle=orthogonalEdgeStyle;rounded=0;orthogonalLoop=1;jettySize=auto;html=1;" edge="1" parent="1" source="JPL0NBKV3lcDAwRk9F9k-28" target="JPL0NBKV3lcDAwRk9F9k-33">
          <mxGeometry relative="1" as="geometry" />
        </mxCell>
        <mxCell id="JPL0NBKV3lcDAwRk9F9k-28" value="feature/ourrealeseinonemonth" style="ellipse;whiteSpace=wrap;html=1;" vertex="1" parent="1">
          <mxGeometry x="647.5" y="840" width="220" height="80" as="geometry" />
        </mxCell>
        <mxCell id="JPL0NBKV3lcDAwRk9F9k-32" value="" style="edgeStyle=orthogonalEdgeStyle;rounded=0;orthogonalLoop=1;jettySize=auto;html=1;" edge="1" parent="1" source="JPL0NBKV3lcDAwRk9F9k-30" target="JPL0NBKV3lcDAwRk9F9k-28">
          <mxGeometry relative="1" as="geometry" />
        </mxCell>
        <mxCell id="JPL0NBKV3lcDAwRk9F9k-30" value="Merge into" style="shape=process;whiteSpace=wrap;html=1;backgroundOutline=1;" vertex="1" parent="1">
          <mxGeometry x="697.5" y="730" width="120" height="60" as="geometry" />
        </mxCell>
        <mxCell id="JPL0NBKV3lcDAwRk9F9k-33" value="Test changes" style="shape=process;whiteSpace=wrap;html=1;backgroundOutline=1;" vertex="1" parent="1">
          <mxGeometry x="940" y="850" width="120" height="60" as="geometry" />
        </mxCell>
        <mxCell id="JPL0NBKV3lcDAwRk9F9k-35" value="Makes code changes" style="text;html=1;align=center;verticalAlign=middle;whiteSpace=wrap;rounded=0;" vertex="1" parent="1">
          <mxGeometry x="817.5" y="340" width="60" height="30" as="geometry" />
        </mxCell>
        <mxCell id="JPL0NBKV3lcDAwRk9F9k-45" value="Branch" style="text;html=1;align=center;verticalAlign=middle;whiteSpace=wrap;rounded=0;" vertex="1" parent="1">
          <mxGeometry x="670" y="210" width="60" height="30" as="geometry" />
        </mxCell>
        <mxCell id="JPL0NBKV3lcDAwRk9F9k-46" value="Branch" style="text;html=1;align=center;verticalAlign=middle;whiteSpace=wrap;rounded=0;" vertex="1" parent="1">
          <mxGeometry x="350" y="340" width="60" height="30" as="geometry" />
        </mxCell>
      </root>
    </mxGraphModel>
  </diagram>
</mxfile>
